<svg id="Layer_1" data-name="Layer 1" xmlns="http://www.w3.org/2000/svg" xmlns:xlink="http://www.w3.org/1999/xlink" viewBox="0 0 512 512"><defs><linearGradient id="linear-gradient" x1="256" y1="512" x2="256" gradientUnits="userSpaceOnUse"><stop offset="0" stop-color="#458d34"/><stop offset="1" stop-color="#8bc53f"/></linearGradient></defs><title>document</title><path d="M512,412.3A99.71,99.71,0,0,1,412.3,512H99.69A99.69,99.69,0,0,1,0,412.3V99.7A99.69,99.69,0,0,1,99.69,0H412.3A99.71,99.71,0,0,1,512,99.7Z" fill="url(#linear-gradient)"/><path d="M226.74,0H174.5L87.68,29.27a41.42,41.42,0,0,0-26,52.46l102.48,304a41.45,41.45,0,0,0,52.4,26l119.06-40.16,33.8-13L449.8,196.75s-6-22-10.39-34.6L384.74,0h-158Z" fill="#21632c"/><rect x="153.56" y="112.83" width="203.4" height="15.74" transform="matrix(0.97, -0.25, 0.25, 0.97, -22.25, 68.62)" fill="none"/><rect x="167.61" y="166.48" width="203.39" height="15.75" transform="translate(-35.38 73.91) rotate(-14.67)" fill="none"/><polygon points="182.99 246.18 186.98 261.4 252.47 244.25 248.5 229.03 182.99 246.18" fill="none"/><polygon points="140.81 85.16 144.81 100.39 341.56 48.84 337.57 33.62 140.81 85.16" fill="none"/><path d="M312.08,241.18l25.7,98.18,84.35-144.2L324,220.87A16.69,16.69,0,0,0,312.08,241.18Z" fill="#fff"/><path d="M103.17,32.35A17.85,17.85,0,0,0,90.45,54.11l81.26,310.33a17.87,17.87,0,0,0,21.76,12.71l128.81-33.74L294.83,238.6a25,25,0,0,1,17.82-30.48l105.64-27.65L371,0H226.74ZM187,261.4l-4-15.22L248.5,229l4,15.22Zm182.7-105.19L172.93,207.74l-4-15.24L365.69,141Zm-14.05-53.68L158.88,154.08l-4-15.22L351.64,87.32ZM144.81,100.4l-4-15.24L337.57,33.62l4,15.22Z" fill="#fff"/></svg>